<svg width="27" height="18" viewBox="0 0 27 18" fill="none" xmlns="http://www.w3.org/2000/svg">
<path d="M26 10C26.5523 10 27 9.55228 27 9C27 8.44772 26.5523 8 26 8V10ZM0 10H26V8H0V10Z" fill="white"/>
<path d="M25.2929 9.70711C25.6834 10.0976 26.3166 10.0976 26.7071 9.70711C27.0976 9.31658 27.0976 8.68342 26.7071 8.29289L25.2929 9.70711ZM17.2929 1.70711L25.2929 9.70711L26.7071 8.29289L18.7071 0.292893L17.2929 1.70711Z" fill="white"/>
<path d="M26.7071 9.70711C27.0976 9.31658 27.0976 8.68342 26.7071 8.29289C26.3166 7.90237 25.6834 7.90237 25.2929 8.29289L26.7071 9.70711ZM18.7071 17.7071L26.7071 9.70711L25.2929 8.29289L17.2929 16.2929L18.7071 17.7071Z" fill="white"/>
</svg>
