<svg width="229" height="75" viewBox="0 0 229 75" fill="none" xmlns="http://www.w3.org/2000/svg">
<path d="M63.6431 16.4543L61.629 15.9797V14.6833L66.1318 14.556H69.095C71.4331 14.556 73.262 15.2582 74.5816 16.6626C75.9011 18.0594 76.5609 20.0464 76.5609 22.6238C76.5609 24.3447 76.2407 25.8494 75.6002 27.1381C74.9674 28.4268 74.0568 29.4184 72.8685 30.1129C71.6801 30.8074 70.3065 31.1547 68.7477 31.1547H61.629V29.7309L63.6431 29.2563V16.4543ZM68.8635 29.2563C70.4145 29.2563 71.6299 28.7162 72.5096 27.6358C73.3971 26.5555 73.8408 24.9234 73.8408 22.7396C73.8408 20.6098 73.4125 19.0317 72.5559 18.0054C71.7071 16.9713 70.5149 16.4543 68.9792 16.4543H66.1318V29.2563H68.8635ZM86.0525 29.7309L88.4254 29.2563V16.4543H85.3464L84.7561 18.8272H83.205V14.556H96.1344V18.8272H94.5949L93.993 16.4543H90.914V29.2563L93.2869 29.7309V31.1547H86.0525V29.7309ZM109.654 29.7309V31.1547H103.253V29.7309L105.267 29.2563V16.4543L103.253 15.9797V14.6833L108.23 14.556L116.055 27.8095V16.4543L114.041 15.9797V14.6833L120.199 14.556V15.9797L118.185 16.4543V31.1547H115.222L107.397 18.098V29.2563L109.654 29.7309ZM134.425 14.6833L136.798 14.556L142.064 29.2795L144.032 29.7309V31.1547H137.157V29.7309L139.356 29.2795L138.453 26.652H132.295L131.369 29.2795L133.591 29.7309V31.1547H127.075V29.7309L129.019 29.2795L134.425 14.6833ZM135.42 17.6234L132.932 24.7536H137.816L135.42 17.6234ZM61.7629 43.927V42.5663H73.7911V43.927H68.5343V59.1547H67.0197V43.927H61.7629ZM92.8191 42.5663H94.3338V53.5496C94.3338 54.6782 94.0692 55.688 93.54 56.5789C93.0108 57.4645 92.2738 58.1638 91.3288 58.6768C90.3892 59.1844 89.2957 59.4382 88.0484 59.4382C86.8064 59.4382 85.7129 59.1817 84.7679 58.6687C83.823 58.1557 83.0859 57.4564 82.5567 56.5708C82.0275 55.6853 81.7629 54.6782 81.7629 53.5496V42.5663H83.2776V53.4443C83.2776 54.3245 83.4747 55.1102 83.8689 55.8013C84.2631 56.4871 84.8165 57.0271 85.5293 57.4213C86.2475 57.8155 87.0872 58.0126 88.0484 58.0126C89.0095 58.0126 89.8492 57.8155 90.5674 57.4213C91.2856 57.0271 91.8391 56.4871 92.2279 55.8013C92.622 55.1102 92.8191 54.3245 92.8191 53.4443V42.5663ZM103.298 59.1547V42.5663H108.652C109.829 42.5663 110.812 42.7796 111.6 43.2062C112.394 43.6274 112.991 44.2132 113.39 44.9638C113.795 45.709 113.998 46.5649 113.998 47.5315C113.998 48.498 113.795 49.3512 113.39 50.091C112.991 50.8308 112.397 51.4086 111.608 51.8243C110.82 52.2401 109.842 52.448 108.676 52.448H104.116V51.063H108.636C109.5 51.063 110.218 50.9199 110.79 50.6337C111.368 50.3475 111.797 49.9398 112.078 49.4106C112.364 48.8814 112.507 48.255 112.507 47.5315C112.507 46.8079 112.364 46.1761 112.078 45.6361C111.792 45.0907 111.36 44.6695 110.782 44.3725C110.21 44.0755 109.486 43.927 108.611 43.927H104.813V59.1547H103.298ZM110.612 51.6705L114.694 59.1547H112.945L108.903 51.6705H110.612ZM123.764 42.5663V59.1547H122.249V42.5663H123.764ZM141.743 46.7134C141.651 45.79 141.243 45.0556 140.52 44.5102C139.796 43.9648 138.886 43.6922 137.79 43.6922C137.018 43.6922 136.337 43.8245 135.749 44.089C135.166 44.3536 134.707 44.7208 134.372 45.1906C134.043 45.655 133.878 46.1842 133.878 46.7782C133.878 47.2156 133.972 47.599 134.161 47.9283C134.35 48.2577 134.604 48.5412 134.923 48.7788C135.247 49.011 135.603 49.2108 135.992 49.3782C136.386 49.5456 136.783 49.686 137.183 49.7994L138.932 50.3016C139.461 50.4474 139.99 50.6337 140.52 50.8605C141.049 51.0873 141.532 51.3735 141.97 51.7191C142.412 52.0592 142.766 52.4777 143.031 52.9745C143.301 53.4659 143.436 54.0572 143.436 54.7484C143.436 55.634 143.206 56.4304 142.747 57.1378C142.288 57.8452 141.629 58.4068 140.771 58.8226C139.912 59.233 138.883 59.4382 137.685 59.4382C136.556 59.4382 135.576 59.2519 134.744 58.8793C133.913 58.5013 133.26 57.9802 132.784 57.316C132.309 56.6518 132.042 55.8823 131.982 55.0076H133.538C133.592 55.661 133.808 56.2144 134.186 56.668C134.564 57.1216 135.055 57.4672 135.66 57.7048C136.265 57.937 136.94 58.0531 137.685 58.0531C138.511 58.0531 139.245 57.9154 139.888 57.64C140.536 57.3592 141.043 56.9704 141.411 56.4736C141.783 55.9714 141.97 55.3883 141.97 54.7241C141.97 54.1625 141.824 53.6927 141.532 53.3147C141.241 52.9313 140.833 52.61 140.309 52.3508C139.791 52.0916 139.189 51.8621 138.503 51.6624L136.518 51.0792C135.217 50.6904 134.207 50.1531 133.489 49.4673C132.771 48.7815 132.412 47.9067 132.412 46.843C132.412 45.952 132.649 45.169 133.125 44.494C133.605 43.8137 134.253 43.2845 135.068 42.9065C135.889 42.5231 136.81 42.3314 137.831 42.3314C138.862 42.3314 139.774 42.5204 140.568 42.8984C141.362 43.2764 141.991 43.7975 142.455 44.4616C142.925 45.1204 143.176 45.871 143.209 46.7134H141.743ZM151.642 42.5663H153.392L159.41 57.0163H159.556L165.574 42.5663H167.323V59.1547H165.898V45.7657H165.768L160.171 59.1547H158.794L153.197 45.7657H153.068V59.1547H151.642V42.5663ZM189.895 50.8605C189.895 52.5884 189.587 54.0923 188.972 55.3721C188.356 56.6464 187.508 57.6346 186.428 58.3366C185.354 59.0332 184.117 59.3815 182.719 59.3815C181.32 59.3815 180.081 59.0332 179.001 58.3366C177.926 57.6346 177.081 56.6464 176.466 55.3721C175.856 54.0923 175.55 52.5884 175.55 50.8605C175.55 49.1325 175.856 47.6314 176.466 46.357C177.081 45.0772 177.929 44.089 179.009 43.3925C180.089 42.6905 181.326 42.3395 182.719 42.3395C184.117 42.3395 185.354 42.6905 186.428 43.3925C187.508 44.089 188.356 45.0772 188.972 46.357C189.587 47.6314 189.895 49.1325 189.895 50.8605ZM188.421 50.8605C188.421 49.3755 188.173 48.1038 187.676 47.0455C187.179 45.9817 186.501 45.169 185.643 44.6074C184.784 44.0458 183.81 43.7651 182.719 43.7651C181.633 43.7651 180.661 44.0458 179.803 44.6074C178.944 45.169 178.264 45.979 177.762 47.0374C177.265 48.0957 177.017 49.3701 177.017 50.8605C177.017 52.3454 177.265 53.6171 177.762 54.6755C178.258 55.7338 178.936 56.5465 179.795 57.1135C180.653 57.6751 181.628 57.9559 182.719 57.9559C183.81 57.9559 184.784 57.6751 185.643 57.1135C186.507 56.5519 187.187 55.7419 187.684 54.6836C188.181 53.6198 188.426 52.3454 188.421 50.8605Z" fill="white"/>
<path d="M3.26472 13.7114H10.6565C12.6893 13.7114 14.7323 13.7319 16.7856 13.773C18.8594 13.8141 20.8408 13.8962 22.7298 14.0194C24.6394 14.122 26.3949 14.2658 27.9965 14.4506C29.5981 14.6354 30.943 14.8715 32.0312 15.159C33.6327 15.6312 35.1214 16.3704 36.4971 17.3765C37.8933 18.3826 39.1869 19.5632 40.3778 20.9184C40.85 21.4728 41.3736 22.2222 41.9485 23.1667C42.544 24.0907 43.0984 25.1584 43.6117 26.3699C44.1456 27.5813 44.587 28.8954 44.9361 30.3122C45.2851 31.7289 45.4597 33.197 45.4597 34.7165C45.4597 38.3097 44.7821 41.5539 43.4269 44.449C42.0923 47.3236 40.1519 49.9723 37.6058 52.3952C37.4827 52.4568 37.2979 52.58 37.0515 52.7648C36.8256 52.9496 36.5792 53.1549 36.3123 53.3808C36.0454 53.5861 35.7887 53.7812 35.5423 53.966C35.3164 54.1508 35.1522 54.2842 35.0495 54.3664C34.5773 54.7565 33.9921 55.1261 33.294 55.4751C32.6164 55.8242 31.8669 56.1424 31.0456 56.4299C30.2243 56.7174 29.3619 56.9843 28.4585 57.2307C27.5756 57.4771 26.7029 57.6824 25.8405 57.8467C24.9782 58.0109 24.1671 58.1341 23.4074 58.2163C22.6477 58.3189 21.9906 58.3703 21.4363 58.3703C20.6355 58.3703 19.8142 58.3292 18.9723 58.2471C18.1305 58.1855 17.1552 58.1547 16.0464 58.1547H2.27914C1.62209 58.1547 1.29357 57.9391 1.29357 57.5079C1.29357 57.2615 1.50916 57.0664 1.94035 56.9227C2.37154 56.7584 2.89513 56.6352 3.51111 56.5531C4.1271 56.4504 4.78415 56.3683 5.48226 56.3067C6.18038 56.2246 6.80663 56.1322 7.36101 56.0295C7.77167 55.9474 8.07966 55.8345 8.28499 55.6907C8.51085 55.5265 8.66485 55.3519 8.74698 55.1671C8.84964 54.7359 8.91124 54.3972 8.93177 54.1508C8.95231 53.8838 8.96257 53.5861 8.96257 53.2576V15.8057C8.90097 15.662 8.63405 15.5285 8.16179 15.4053C7.71007 15.2821 7.15569 15.1692 6.49864 15.0666C5.86212 14.9639 5.17427 14.8612 4.43509 14.7586C3.69591 14.6559 3.01832 14.5532 2.40234 14.4506C2.07381 14.4095 1.90955 14.3068 1.90955 14.1426C1.90955 14.1015 2.02248 13.9988 2.24834 13.8346C2.33047 13.7935 2.4434 13.7627 2.58713 13.7422C2.7514 13.7217 2.97726 13.7114 3.26472 13.7114ZM16.0464 15.9597V33.2689C16.0464 34.5214 16.0053 35.7328 15.9232 36.9032C15.8616 38.053 15.7897 39.1823 15.7076 40.2911C15.646 41.3999 15.5741 42.5087 15.492 43.6174C15.4304 44.7057 15.3996 45.8247 15.3996 46.9745C15.3996 49.5617 15.5433 51.5534 15.8308 52.9496C16.1388 54.3253 16.5597 55.3109 17.0936 55.9063C17.34 56.2348 17.689 56.4504 18.1407 56.5531C18.613 56.6352 19.0339 56.6763 19.4035 56.6763C21.0051 56.6763 22.5245 56.471 23.9618 56.0603C25.3991 55.6497 26.7235 55.085 27.9349 54.3664C29.1669 53.6477 30.2654 52.8059 31.2304 51.8408C32.216 50.8758 33.0476 49.8389 33.7251 48.7301C35.1419 46.451 36.1994 44.1616 36.8975 41.8619C37.5956 39.5417 37.9446 37.3344 37.9446 35.24C37.9446 34.0902 37.8522 32.9917 37.6674 31.9445C37.5032 30.8974 37.2979 29.9323 37.0515 29.0494C36.8051 28.1665 36.5381 27.3862 36.2507 26.7087C35.9632 26.0311 35.7066 25.4972 35.4807 25.1071C35.1727 24.5527 34.7415 23.8854 34.1871 23.1051C33.6327 22.3044 32.9141 21.4831 32.0312 20.6412C31.1688 19.7788 30.1114 18.9473 28.8589 18.1465C27.6064 17.3252 26.1177 16.6168 24.393 16.0213C23.3253 15.6312 22.2576 15.3643 21.1899 15.2205C20.1222 15.0768 18.9518 15.005 17.6788 15.005C17.5556 15.005 17.3913 15.0152 17.186 15.0358C17.0012 15.0563 16.8266 15.0974 16.6624 15.159C16.4981 15.2205 16.3544 15.3232 16.2312 15.4669C16.108 15.5901 16.0464 15.7544 16.0464 15.9597Z" fill="white"/>
</svg>
